<?xml version="1.0" encoding="iso-8859-1"?>
<!-- Generator: Adobe Illustrator 18.0.0, SVG Export Plug-In . SVG Version: 6.00 Build 0)  -->
<!DOCTYPE svg PUBLIC "-//W3C//DTD SVG 1.1//EN" "http://www.w3.org/Graphics/SVG/1.1/DTD/svg11.dtd">
<svg version="1.1" id="Capa_1" xmlns="http://www.w3.org/2000/svg" xmlns:xlink="http://www.w3.org/1999/xlink" x="0px" y="0px"
	 viewBox="0 0 481.545 481.545" style="enable-background:new 0 0 481.545 481.545;" xml:space="preserve">
<g>
	<path d="M457.751,6.482C456.126,2.559,452.297,0,448.05,0H292.098c-2.77,0-5.428,1.094-7.394,3.045L246.395,41.04L207.551,2.998
		C205.588,1.076,202.951,0,200.204,0H33.495c-4.254,0-8.087,2.566-9.708,6.5c-1.621,3.933-0.708,8.455,2.311,11.452l109.071,108.283
		h-5.297c-15.674,0-28.425,12.751-28.425,28.425v5.378c0,15.674,12.752,28.425,28.425,28.425h223.691
		c15.674,0,28.425-12.751,28.425-28.425v-5.378c0-15.674-12.751-28.425-28.425-28.425h-6.432L455.474,17.926
		C458.477,14.923,459.376,10.407,457.751,6.482z M296.422,21h69.676L260.86,126.235h-70.543L296.422,21z M58.975,21h136.944
		l35.564,34.83l-68.746,68.182L58.975,21z M353.563,147.235c4.094,0,7.425,3.331,7.425,7.425v5.378c0,4.094-3.331,7.425-7.425,7.425
		H129.872c-4.094,0-7.425-3.331-7.425-7.425v-5.378c0-4.094,3.331-7.425,7.425-7.425H353.563z M317.43,126.235h-26.87L395.797,21
		h26.898L317.43,126.235z"/>
	<path d="M268.284,275.913h-55.023c-5.799,0-10.5,4.701-10.5,10.5v39.741c0,5.799,4.701,10.5,10.5,10.5h4.783v89.72
		c0,5.799,4.701,10.5,10.5,10.5h39.74c5.799,0,10.5-4.701,10.5-10.5v-139.96C278.784,280.614,274.083,275.913,268.284,275.913z
		 M257.784,415.873h-18.74v-89.72c0-5.799-4.701-10.5-10.5-10.5h-4.783v-18.741h34.023V415.873z"/>
	<path d="M320.196,222.163c-1.875-3.249-5.342-5.25-9.093-5.25H170.443c-3.752,0-7.218,2.001-9.093,5.25L91.018,343.979
		c-1.875,3.249-1.875,7.251,0,10.5l70.331,121.816c1.876,3.249,5.342,5.25,9.093,5.25h140.661c3.751,0,7.218-2.001,9.094-5.25
		l70.33-121.816c1.875-3.249,1.875-7.251-0.001-10.5L320.196,222.163z M305.041,460.545H176.505l-64.269-111.316l64.269-111.316
		h128.536l64.269,111.316L305.041,460.545z"/>
</g>
<g>
</g>
<g>
</g>
<g>
</g>
<g>
</g>
<g>
</g>
<g>
</g>
<g>
</g>
<g>
</g>
<g>
</g>
<g>
</g>
<g>
</g>
<g>
</g>
<g>
</g>
<g>
</g>
<g>
</g>
</svg>
